# xmcd
#
# Track frame offsets:
#	150
#	18389
#	38365
#	60385
#	81067
#	100244
#	119147
#	142509
#	157090
#	171510
#	186132
#	205621
#	225498
#
# Disc length: 3270 seconds
#
# Revision: 1
# Processed by: cddbd v1.5.2PL0 Copyright (c) Steve Scherf et al.
# Submitted via: audiograbber 1.83.01
#
DISCID=9e0cc40d
DTITLE=Little Big Town - A Place To Land
DYEAR=2007
DGENRE=Country
TTITLE0=Fine Line
TTITLE1=I'm With the band
TTITLE2=That's Where I'll Be
TTITLE3=Evangeline
TTITLE4=Vapor
TTITLE5=Novocaine
TTITLE6=Only What You Make of it
TTITLE7=A Place To Land
TTITLE8=A Place To Land
TTITLE9=Firebird Fly
TTITLE10=To Know Love
TTITLE11=Lonely Enough
TTITLE12=Fury
EXTD=
EXTT0=
EXTT1=
EXTT2=
EXTT3=
EXTT4=
EXTT5=
EXTT6=
EXTT7=
EXTT8=
EXTT9=
EXTT10=
EXTT11=
EXTT12=
PLAYORDER=
